<?xml version="1.0" standalone="no"?>
<!DOCTYPE svg PUBLIC "-//W3C//DTD SVG 20010904//EN"
 "http://www.w3.org/TR/2001/REC-SVG-20010904/DTD/svg10.dtd">
<svg version="1.0" xmlns="http://www.w3.org/2000/svg"
 width="1024.000000pt" height="1024.000000pt" viewBox="0 0 1024.000000 1024.000000"
 preserveAspectRatio="xMidYMid meet">
<metadata>
Created by potrace 1.14, written by Peter Selinger 2001-2017
</metadata>
<g transform="translate(0.000000,1024.000000) scale(0.100000,-0.100000)"
fill="#000000" stroke="none">
<path d="M0 9615 c0 -355 4 -625 9 -625 5 0 11 -9 14 -19 3 -14 1 -18 -9 -14
-8 3 -14 -1 -14 -11 0 -9 8 -16 20 -16 11 0 23 -7 27 -16 6 -17 -12 -34 -31
-30 -6 2 -7 1 -3 -2 5 -2 13 -15 18 -29 5 -14 18 -27 29 -30 16 -4 20 -14 20
-48 0 -40 2 -42 25 -37 18 3 27 -1 31 -14 4 -11 13 -26 20 -34 7 -8 14 -35 16
-60 2 -38 6 -45 22 -43 11 1 26 -6 33 -15 7 -10 12 -12 13 -5 0 18 27 5 33
-16 5 -19 67 -41 115 -41 17 0 37 -7 45 -15 10 -10 17 -11 19 -4 2 7 39 13 93
15 59 3 97 9 113 20 14 9 55 18 100 21 52 3 95 13 131 29 30 14 60 23 67 20 7
-3 16 -1 19 4 4 6 1 10 -4 10 -26 0 -8 39 29 65 22 15 40 32 40 36 0 5 13 9
29 9 23 0 32 7 43 30 11 26 18 30 50 30 21 0 38 5 38 10 0 6 -9 10 -20 10 -30
0 -14 24 24 38 19 7 37 19 40 27 3 8 12 15 21 15 8 0 15 6 15 14 0 10 -14 16
-42 19 l-43 4 43 1 c35 2 42 5 42 22 0 11 6 20 13 20 8 0 22 18 32 40 13 29
24 40 40 40 16 0 27 11 40 40 19 43 35 52 35 20 0 -34 23 -24 58 27 12 17 22
40 22 51 0 15 9 21 40 26 29 4 40 11 40 24 1 15 2 15 15 -2 11 -14 12 -22 4
-27 -15 -9 -2 -29 18 -29 11 0 14 6 10 21 -7 26 24 97 40 92 6 -2 17 5 23 16
6 12 19 21 28 21 30 0 61 28 55 50 -6 23 9 26 27 5 10 -12 15 -10 37 15 31 38
38 38 51 -2 10 -33 10 -33 11 -6 1 28 2 28 61 25 44 -3 67 -9 85 -25 34 -30
39 -28 60 18 19 43 35 52 35 20 0 -17 7 -20 39 -20 24 0 48 8 62 20 l24 19
-22 1 c-20 0 -23 5 -23 41 0 28 -6 46 -17 55 -17 13 -17 13 0 14 11 0 17 8 17
25 0 23 4 25 40 25 33 0 40 -3 40 -20 0 -17 7 -20 40 -20 33 0 40 3 40 20 0
16 -7 20 -31 20 l-31 0 7 78 c4 42 11 79 15 82 5 3 10 23 13 45 l4 40 1 -42
c2 -54 22 -57 22 -3 0 22 5 40 11 40 28 0 -23 29 -57 33 -30 3 -25 4 20 5 55
2 58 3 40 17 -14 11 -15 14 -4 15 10 0 11 3 4 8 -18 12 -25 42 -9 42 8 0 23
10 35 22 16 18 20 35 20 99 0 61 3 78 16 83 29 11 762 7 766 -5 2 -5 24 -11
48 -12 44 -2 45 -3 42 -33 -2 -27 1 -33 23 -38 14 -4 30 -4 34 -1 5 2 14 -2
21 -10 7 -8 9 -15 4 -15 -5 0 0 -7 10 -15 19 -14 18 -15 -5 -24 -19 -8 -12
-10 39 -10 34 -1 62 -5 62 -11 0 -6 32 -10 77 -10 73 0 77 1 104 32 26 28 29
29 36 12 12 -32 30 -44 67 -44 30 0 36 -4 36 -20 0 -18 3 -19 20 -10 21 11 60
-2 60 -20 0 -6 14 -10 30 -10 28 0 30 -2 30 -40 0 -22 5 -40 10 -40 6 0 10 -4
10 -10 0 -5 -18 -10 -40 -10 -29 0 -40 -4 -40 -15 0 -26 -32 -52 -73 -59 -27
-5 -40 -14 -47 -30 -10 -26 -80 -48 -157 -50 -34 -1 -43 -5 -43 -18 0 -21 11
-23 28 -6 8 8 15 8 27 -2 13 -11 18 -11 24 -1 6 9 20 10 47 5 l39 -8 -38 -8
c-47 -10 -72 -32 -62 -56 5 -10 9 -12 12 -5 3 8 11 7 31 -3 15 -8 37 -14 50
-14 22 0 26 -7 23 -46 -1 -12 5 -24 13 -27 9 -4 16 -12 16 -19 0 -7 7 -26 15
-42 12 -22 12 -32 4 -42 -8 -10 -8 -14 0 -14 6 0 11 -13 11 -30 0 -28 2 -30
40 -30 33 0 40 -3 40 -20 0 -17 -7 -20 -40 -20 -25 0 -40 5 -40 13 0 6 -12 -6
-25 -28 -24 -39 -70 -70 -58 -39 4 11 -4 14 -34 14 -21 0 -45 -6 -53 -12 -12
-11 -12 -10 -2 3 12 16 1 71 -19 93 -15 16 -10 -12 6 -44 9 -17 12 -30 7 -30
-5 0 -20 22 -33 49 -13 27 -26 48 -30 45 -4 -2 -7 2 -6 9 1 43 -4 71 -12 59
-6 -10 -10 -8 -14 9 -8 29 4 49 14 23 7 -18 8 -18 8 3 1 12 4 30 8 40 4 13 0
11 -16 -7 -15 -17 -24 -21 -27 -12 -11 26 -22 9 -39 -58 -9 -38 -21 -67 -26
-64 -5 3 -9 0 -9 -5 0 -6 5 -11 10 -11 6 0 10 -10 10 -22 -1 -22 -1 -23 -15
-4 -13 17 -15 17 -15 4 0 -9 5 -20 10 -23 5 -3 10 -16 10 -28 -1 -22 -1 -22
-14 2 -13 24 -13 24 -18 -12 -3 -29 -1 -34 9 -25 10 8 13 4 13 -16 0 -17 -4
-25 -11 -20 -8 5 -9 -3 -3 -27 9 -37 10 -113 4 -279 -3 -93 -4 -99 -10 -50 -5
42 -7 28 -7 -60 0 -85 2 -103 8 -70 4 29 7 -7 5 -99 -1 -79 2 -133 5 -120 4
13 8 -55 9 -151 1 -96 5 -238 9 -314 l6 -140 -44 -40 c-24 -23 -50 -47 -57
-54 -8 -7 -18 -11 -23 -7 -5 3 -13 0 -17 -6 -4 -8 -3 -9 4 -5 24 15 11 -13
-17 -37 -89 -74 -572 -635 -653 -757 -9 -14 -27 -37 -40 -52 -13 -15 -61 -80
-108 -143 -47 -64 -128 -173 -181 -243 -52 -70 -112 -153 -133 -184 -21 -33
-43 -55 -49 -51 -6 3 -7 1 -3 -5 4 -6 -10 -34 -31 -61 -21 -27 -55 -74 -76
-105 -21 -31 -43 -54 -48 -51 -5 3 -6 0 -4 -7 3 -8 -4 -23 -15 -35 -11 -12
-20 -27 -20 -32 0 -6 -11 -22 -25 -36 -14 -14 -22 -25 -18 -25 4 0 3 -4 -2 -8
-6 -4 -23 -26 -39 -50 -22 -32 -32 -39 -38 -30 -7 9 -8 7 -4 -7 5 -21 -24 -65
-43 -65 -6 0 -8 -7 -5 -15 5 -11 2 -13 -10 -9 -12 5 -15 2 -10 -10 7 -19 -12
-22 -20 -3 -3 6 -3 2 0 -11 7 -28 -12 -53 -33 -45 -12 5 -11 1 3 -16 l19 -22
38 41 c37 39 55 52 41 28 -5 -9 -2 -8 10 1 9 8 13 17 7 20 -5 3 1 18 14 34 26
30 40 35 31 12 -3 -8 -1 -15 5 -15 7 0 9 10 5 23 -4 17 4 32 34 62 21 22 39
43 40 47 0 15 43 57 52 52 5 -3 7 -1 6 4 -2 5 22 38 52 73 143 167 519 455
579 444 20 -4 22 -3 7 3 -17 7 -11 13 40 44 148 88 172 99 158 76 -4 -7 -3 -8
5 -4 6 4 9 11 7 15 -5 7 60 43 68 38 2 -1 12 5 22 14 11 8 39 24 64 34 25 11
48 24 52 29 4 6 10 7 14 4 4 -4 20 2 36 13 16 12 36 18 44 15 8 -3 12 -2 9 3
-6 11 32 26 54 22 7 -1 10 2 6 8 -4 7 0 8 11 4 11 -4 15 -2 11 4 -4 6 3 13 16
16 12 2 31 8 42 12 16 6 15 3 -5 -14 -21 -18 -21 -20 -5 -14 19 6 19 5 4 -13
-8 -10 -21 -37 -27 -60 -7 -23 -23 -53 -37 -68 -14 -15 -25 -32 -25 -39 0 -7
4 -6 11 3 15 21 9 5 -25 -65 -46 -97 -62 -134 -107 -240 -60 -145 -179 -377
-203 -398 -12 -10 -15 -16 -9 -12 7 3 -4 -21 -24 -54 -21 -32 -41 -57 -45 -55
-7 5 -9 0 -12 -33 -1 -6 -11 -22 -22 -35 -12 -13 -24 -31 -27 -41 -4 -11 -12
-15 -18 -11 -8 4 -9 3 -5 -5 4 -6 -2 -24 -14 -39 -11 -15 -57 -76 -102 -135
-147 -197 -428 -491 -629 -659 -42 -35 -59 -44 -68 -35 -8 8 -11 8 -11 0 0 -7
5 -15 10 -18 6 -4 7 -11 4 -17 -4 -6 -10 -5 -15 3 -7 11 -9 10 -9 -3 0 -12 8
-17 28 -16 15 1 36 -2 47 -7 l20 -8 -20 17 c-11 9 -15 15 -10 15 15 -3 64 12
113 33 23 11 47 16 52 13 6 -3 10 -2 10 4 0 5 32 21 70 36 39 15 111 49 161
76 49 27 91 49 93 49 1 0 85 48 187 106 101 58 200 115 219 126 19 11 40 25
47 30 7 5 18 6 25 2 7 -4 10 -3 5 1 -7 8 93 78 100 71 2 -2 -41 -132 -94 -291
-73 -213 -103 -289 -115 -293 -11 -2 -18 -13 -17 -26 0 -20 1 -20 9 -1 6 13 9
15 9 5 1 -20 -16 -46 -25 -38 -3 4 -10 22 -14 40 l-8 33 -1 -30 c-1 -26 -5
-31 -28 -33 -15 -1 -29 -6 -32 -11 -3 -4 -13 -11 -21 -14 -12 -4 -11 -6 3 -6
27 -1 20 -19 -10 -25 -78 -14 -123 -17 -123 -7 0 6 10 11 22 11 33 0 14 12
-33 20 -36 7 -42 5 -46 -11 -7 -24 -39 -25 -45 -1 -5 17 -11 18 -74 9 -38 -5
-109 -7 -157 -4 -62 3 -92 1 -100 -8 -20 -19 -87 -29 -87 -12 0 14 31 33 65
40 11 2 -17 7 -62 11 -46 5 -83 12 -83 17 0 5 -18 9 -40 9 -29 0 -40 -4 -40
-15 0 -11 -11 -15 -40 -15 -22 0 -40 5 -40 10 0 6 -12 10 -27 11 l-28 1 28 11
c15 6 27 14 27 19 0 10 11 8 -124 14 -76 4 -113 9 -123 20 -8 7 -22 14 -31 14
-139 4 -194 11 -209 25 -11 11 -26 15 -45 11 -15 -3 -28 -1 -28 4 0 6 -6 10
-14 10 -8 0 -25 18 -37 40 -13 22 -26 35 -29 29 -9 -13 -102 -7 -107 7 -2 6 6
15 19 19 19 7 14 9 -24 12 -27 2 -48 8 -48 12 0 17 73 41 108 37 21 -3 29 -3
20 0 -23 7 -22 9 7 64 14 27 24 38 25 27 0 -10 6 -17 13 -15 16 6 21 86 8 121
-9 24 -16 27 -58 27 -27 0 -55 5 -63 10 -13 8 -13 10 2 10 9 0 19 6 21 13 4
10 6 10 6 0 1 -21 39 -15 46 7 9 28 -3 43 -31 37 -21 -4 -23 -1 -22 44 0 47 0
48 39 54 23 4 39 12 39 21 0 16 31 34 59 34 12 0 21 7 21 15 0 8 5 15 11 15 6
0 9 -7 6 -15 -6 -15 10 -32 20 -21 4 3 7 16 9 29 1 12 3 25 3 30 1 11 31 8 31
-3 0 -5 18 -10 40 -10 22 0 40 5 40 10 0 6 33 10 80 10 64 0 80 3 80 15 0 9
-10 15 -26 15 -19 0 -24 4 -20 18 2 9 7 31 11 48 l6 30 -63 2 c-35 1 -64 6
-66 12 -2 5 -21 10 -43 10 -37 0 -39 2 -39 30 0 28 -2 30 -40 30 -22 0 -40 -4
-40 -10 0 -5 -18 -10 -39 -10 -44 0 -71 -8 -71 -21 0 -5 7 -9 15 -9 9 0 15
-10 15 -26 0 -21 -4 -25 -22 -22 -17 2 -22 9 -20 26 3 17 -2 22 -17 22 -17 0
-21 -6 -21 -35 0 -19 -5 -35 -10 -35 -6 0 -14 -8 -17 -17 -4 -10 -15 -27 -25
-37 -10 -11 -17 -29 -17 -40 3 -38 -1 -109 -6 -104 -3 2 -6 37 -6 76 -1 54 -4
69 -14 65 -8 -2 -16 -11 -19 -19 -3 -8 -15 -14 -26 -14 -11 0 -20 -7 -20 -15
0 -11 -12 -15 -44 -15 -35 0 -45 4 -49 20 -7 26 -34 26 -42 0 -6 -20 -45 -29
-45 -10 0 6 -9 10 -20 10 -11 0 -20 -4 -20 -10 0 -5 -22 -10 -50 -10 -42 0
-50 -3 -50 -19 0 -15 -9 -20 -47 -23 -40 -3 -52 0 -71 19 -25 25 -42 30 -42
11 0 -10 -3 -9 -9 1 -11 18 -31 5 -31 -20 0 -10 -5 -19 -11 -19 -8 0 -10 12
-6 35 4 26 2 35 -9 35 -8 0 -14 -7 -14 -15 0 -11 -11 -15 -40 -15 -27 0 -40 4
-40 14 0 7 -14 16 -31 20 -47 9 -49 8 -49 -19 0 -22 -4 -25 -40 -25 -22 0 -40
5 -40 10 0 6 -33 10 -80 10 l-80 0 0 -2720 0 -2720 5120 0 5120 0 0 5120 0
5120 -5120 0 -5120 0 0 -625z m2393 538 c-7 -2 -19 -2 -25 0 -7 3 -2 5 12 5
14 0 19 -2 13 -5z m1026 -13 c15 0 21 -6 21 -21 0 -16 -4 -19 -17 -14 -10 4
-28 10 -40 12 -14 3 -23 13 -23 25 0 15 3 17 19 8 11 -5 29 -10 40 -10z m215
-125 c4 -10 -1 -15 -14 -15 -11 0 -20 7 -20 15 0 8 6 15 14 15 8 0 16 -7 20
-15z m4868 -22 c12 -19 18 -23 18 -12 0 21 40 33 46 13 14 -47 17 -49 23 -19
5 24 12 31 35 33 30 4 49 -13 41 -35 -2 -7 2 -13 10 -13 8 0 15 9 15 20 0 11
3 20 8 21 4 0 18 2 32 3 14 2 32 6 41 10 20 9 39 -31 39 -83 0 -35 2 -38 25
-33 18 3 25 0 25 -11 0 -22 -18 -31 -35 -17 -11 9 -18 10 -29 1 -11 -9 -15 -7
-19 9 -5 19 -8 20 -26 8 -12 -7 -21 -18 -21 -25 0 -7 -11 -13 -25 -13 -20 0
-25 5 -25 25 0 29 -16 34 -24 7 -8 -24 -82 -21 -101 4 -12 17 -13 16 -19 -4
-8 -24 -26 -30 -26 -9 0 9 -3 8 -9 -2 -5 -7 -14 -10 -20 -7 -6 4 -9 12 -6 17
4 5 0 9 -7 9 -7 0 -19 -9 -26 -20 -15 -24 -32 -26 -32 -3 0 13 -3 14 -12 5
-23 -23 -38 -13 -38 24 0 19 -4 43 -9 53 -6 10 -7 27 -4 39 6 24 29 30 36 10
3 -10 9 -10 25 -1 12 7 28 10 36 7 8 -3 17 -1 21 5 10 17 19 13 37 -16z m438
6 l38 -21 21 21 c13 13 34 21 56 21 31 0 36 -3 42 -30 l6 -30 23 25 c27 29 64
34 64 8 0 -14 4 -13 25 7 20 19 27 21 40 10 8 -7 15 -20 16 -29 0 -10 2 -12 6
-3 2 7 14 17 24 23 17 9 21 6 31 -22 l11 -32 11 34 c9 28 16 35 44 37 18 2 40
-2 48 -9 11 -9 17 -9 29 1 13 10 19 10 33 -3 13 -12 21 -14 29 -6 6 6 41 13
77 15 53 3 68 1 72 -11 4 -8 1 -21 -5 -28 -5 -7 -13 -33 -16 -56 -3 -24 -7
-47 -10 -51 -9 -14 -53 -17 -76 -4 -17 9 -28 9 -36 2 -9 -7 -13 -7 -13 3 0 10
-3 10 -12 1 -17 -17 -26 -15 -33 9 -7 21 -8 21 -33 -6 -15 -17 -27 -24 -30
-17 -2 7 -7 10 -12 7 -4 -3 -13 2 -20 10 -11 13 -14 13 -26 -2 -12 -17 -14
-17 -37 5 -24 23 -25 23 -31 4 -9 -27 -53 -26 -62 1 -6 20 -7 20 -29 -6 -26
-34 -53 -27 -62 15 l-6 29 -18 -31 c-20 -32 -29 -36 -46 -19 -8 8 -18 7 -38
-4 -22 -11 -36 -12 -63 -3 -27 8 -36 8 -40 -2 -6 -18 -40 -14 -51 6 -9 17 -6
107 4 140 6 16 11 15 55 -9z m900 0 c0 -5 12 -3 26 3 19 9 33 9 54 1 23 -9 32
-8 41 3 14 17 29 9 29 -16 0 -26 22 -30 41 -7 9 11 21 17 27 13 21 -13 -3
-126 -26 -126 -5 0 -12 12 -18 27 -8 25 -10 25 -26 10 -9 -9 -18 -22 -20 -28
-3 -9 -10 -8 -25 2 -18 11 -24 10 -39 -2 -21 -18 -120 -21 -153 -6 -19 9 -25
9 -28 0 -3 -7 -11 -13 -18 -13 -15 0 -24 19 -18 37 4 9 10 10 24 2 16 -8 19
-6 19 11 0 48 57 112 91 103 11 -3 19 -9 19 -14z m-5575 -19 c3 -5 -1 -10 -9
-10 -9 0 -16 5 -16 10 0 6 4 10 9 10 6 0 13 -4 16 -10z m-231 -45 c4 -10 -1
-15 -14 -15 -11 0 -20 7 -20 15 0 8 6 15 14 15 8 0 16 -7 20 -15z m246 -5 c0
-5 10 -10 23 -10 20 -1 21 -1 4 -11 -10 -6 -30 -8 -44 -4 -25 6 -25 5 -19 -42
3 -26 3 -42 0 -35 -3 6 -23 12 -45 12 -39 0 -39 0 -39 40 l0 40 40 0 c22 0 40
5 40 10 0 6 9 10 20 10 11 0 20 -4 20 -10z m43 -85 c4 -8 2 -17 -3 -20 -6 -4
-10 3 -10 14 0 25 6 27 13 6z m-243 -84 c0 -15 -34 -18 -60 -4 -24 12 -24 13
18 13 23 0 42 -4 42 -9z m-1760 -66 c0 -8 -9 -15 -20 -15 -13 0 -18 5 -14 15
4 8 12 15 20 15 8 0 14 -7 14 -15z m1536 0 c-11 -8 -27 -14 -35 -14 -13 1 -12
2 2 6 9 2 17 9 17 14 0 5 8 9 18 9 15 -1 15 -2 -2 -15z m17 -79 c7 -16 -1 -26
-20 -26 -7 0 -13 9 -13 20 0 23 25 27 33 6z m20 -160 c-3 -62 -24 -65 -25 -4
0 47 1 50 14 46 8 -3 12 -20 11 -42z m-1733 19 c0 -8 -4 -15 -9 -15 -13 0 -22
16 -14 24 11 11 23 6 23 -9z m-400 -115 c0 -5 -5 -10 -11 -10 -5 0 -7 5 -4 10
3 6 8 10 11 10 2 0 4 -4 4 -10z m-65 -30 c3 -5 -3 -10 -15 -10 -12 0 -18 5
-15 10 3 6 10 10 15 10 5 0 12 -4 15 -10z m2015 -155 c10 3 21 1 25 -5 3 -5
-1 -10 -10 -10 -13 0 -15 -6 -10 -29 4 -18 2 -32 -6 -37 -7 -4 -10 -3 -6 3 4
6 0 27 -8 47 -8 19 -14 41 -14 48 1 7 3 5 6 -5 3 -12 11 -16 23 -12z m93 -108
l42 -4 -47 -1 c-42 -2 -48 -5 -49 -24 l-2 -23 -4 23 c-2 12 -8 22 -12 22 -5 0
-3 16 3 35 l11 35 8 -29 c6 -26 12 -30 50 -34z m10 -88 c3 -10 2 -19 -3 -19
-4 0 -11 11 -14 25 -4 14 -11 25 -16 25 -6 0 -10 5 -10 12 0 17 37 -20 43 -43z
m-23 -19 c0 -11 -2 -20 -4 -20 -2 0 -6 9 -9 20 -3 11 -1 20 4 20 5 0 9 -9 9
-20z m48 -41 c-3 -8 -7 -3 -11 10 -4 17 -3 21 5 13 5 -5 8 -16 6 -23z m-26
-11 c-7 -7 -12 -8 -12 -2 0 14 12 26 19 19 2 -3 -1 -11 -7 -17z m18 -24 c0 -8
-5 -12 -10 -9 -6 4 -8 11 -5 16 9 14 15 11 15 -7z m66 -65 c8 -16 14 -34 13
-41 0 -10 -2 -10 -6 0 -2 6 -9 10 -14 6 -5 -3 -9 7 -9 22 0 15 -8 37 -17 48
-17 20 -17 20 0 7 10 -8 25 -27 33 -42z m-28 -24 c-3 -3 -9 2 -12 12 -6 14 -5
15 5 6 7 -7 10 -15 7 -18z m477 -23 c-3 -3 -11 0 -18 7 -9 10 -8 11 6 5 10 -3
15 -9 12 -12z m-4178 -34 c-3 -7 -5 -2 -5 12 0 14 2 19 5 13 2 -7 2 -19 0 -25z
m3733 6 c0 -8 -5 -12 -10 -9 -6 4 -8 11 -5 16 9 14 15 11 15 -7z m97 -141 c-3
-10 -5 -4 -5 12 0 17 2 24 5 18 2 -7 2 -21 0 -30z m-3357 -67 c0 -9 -8 -12
-25 -8 -28 5 -24 22 6 22 10 0 19 -6 19 -14z m3440 -62 c0 -2 -7 -4 -15 -4 -8
0 -15 4 -15 10 0 5 7 7 15 4 8 -4 15 -8 15 -10z m2078 -2669 c27 -59 9 -163
-37 -216 -29 -32 -31 -33 -125 -37 -109 -5 -119 -1 -146 64 -26 60 -28 89 -6
113 26 28 33 26 34 -8 2 -65 49 -119 108 -127 22 -2 32 -2 24 2 -89 34 -99 43
-116 116 -9 41 10 63 75 88 72 27 95 21 121 -30 32 -62 24 -102 -28 -148 l-27
-24 31 16 c58 28 70 121 24 186 l-21 30 39 0 c32 0 41 -5 50 -25z m76 12 c23
-16 31 -81 17 -133 -13 -50 -67 -111 -104 -120 l-28 -6 31 48 c24 40 30 61 32
114 1 36 -1 75 -5 88 -7 19 -5 22 15 22 13 0 32 -6 42 -13z m-1788 -37 c9 0 6
-11 -12 -37 -21 -31 -25 -46 -21 -86 5 -58 31 -89 89 -106 35 -11 46 -10 79 5
44 19 82 80 75 120 -5 28 1 30 31 9 18 -13 21 -22 16 -53 -6 -40 -28 -88 -49
-109 -8 -9 -44 -13 -111 -13 -109 0 -126 8 -158 71 -19 36 -30 117 -21 152 8
33 35 60 53 53 8 -3 21 -6 29 -6z m-91 -20 c-19 -61 -5 -160 31 -207 30 -39
30 -46 2 -38 -61 19 -109 94 -111 174 -2 68 12 91 55 91 25 0 28 -3 23 -20z
m219 -11 c42 -16 58 -28 62 -46 22 -87 -63 -171 -141 -139 -42 18 -66 54 -70
105 -2 31 3 46 26 70 33 37 49 38 123 10z m1271 -161 c16 -28 16 -28 -15 -28
-26 0 -33 6 -46 35 -18 44 -18 60 3 81 16 15 18 14 30 -22 7 -22 20 -51 28
-66z m-1087 -16 c-16 -37 -28 -48 -62 -56 l-28 -7 20 33 c11 18 24 51 28 72
l7 40 23 -27 c20 -24 22 -31 12 -55z m1009 29 c10 -28 10 -29 -15 -25 -35 7
-36 8 -20 33 17 28 22 27 35 -8z m-4424 -28 c-13 -2 -33 -2 -45 0 -13 2 -3 4
22 4 25 0 35 -2 23 -4z m3460 -34 c-6 -6 -18 -9 -26 -7 -11 2 -12 9 -5 27 8
23 10 24 25 8 13 -12 14 -20 6 -28z m-3683 -29 c0 -5 -2 -10 -4 -10 -3 0 -8 5
-11 10 -3 6 -1 10 4 10 6 0 11 -4 11 -10z m-3 -132 c-2 -13 -4 -3 -4 22 0 25
2 35 4 23 2 -13 2 -33 0 -45z m-717 12 c0 -13 -11 -13 -30 0 -12 8 -11 10 8
10 12 0 22 -4 22 -10z m463 3 c-13 -2 -33 -2 -45 0 -13 2 -3 4 22 4 25 0 35
-2 23 -4z m337 -288 c0 -8 -2 -15 -4 -15 -2 0 -6 7 -10 15 -3 8 -1 15 4 15 6
0 10 -7 10 -15z m-187 -279 c-1 -17 3 -26 13 -26 8 0 14 -4 14 -10 0 -6 -10
-5 -25 2 -26 12 -41 41 -30 58 12 19 30 4 28 -24z m47 10 c0 -3 -4 -8 -10 -11
-5 -3 -10 -1 -10 4 0 6 5 11 10 11 6 0 10 -2 10 -4z m43 -83 c-13 -2 -33 -2
-45 0 -13 2 -3 4 22 4 25 0 35 -2 23 -4z m214 -39 c-3 -3 -12 -4 -19 -1 -8 3
-5 6 6 6 11 1 17 -2 13 -5z m283 -34 c0 -5 -18 -10 -40 -10 -22 0 -40 5 -40
10 0 6 18 10 40 10 22 0 40 -4 40 -10z m477 -46 c-3 -3 -12 -4 -19 -1 -8 3 -5
6 6 6 11 1 17 -2 13 -5z m143 -29 c0 -8 -9 -15 -20 -15 -11 0 -20 7 -20 15 0
8 9 15 20 15 11 0 20 -7 20 -15z m4100 -4520 c0 -13 -116 -15 -986 -15 -593 0
-983 4 -980 9 4 5 0 12 -6 14 -7 3 434 6 980 6 875 1 992 -1 992 -14z"/>
<path d="M9035 9970 c-3 -5 -1 -10 4 -10 6 0 11 5 11 10 0 6 -2 10 -4 10 -3 0
-8 -4 -11 -10z"/>
<path d="M9437 9963 c-4 -3 -7 -11 -7 -17 0 -6 5 -5 12 2 6 6 9 14 7 17 -3 3
-9 2 -12 -2z"/>
<path d="M8916 9934 c-10 -27 -7 -36 9 -20 8 8 15 19 15 25 0 17 -17 13 -24
-5z"/>
<path d="M9608 9939 c-19 -11 -25 -39 -8 -39 6 0 13 -1 17 -2 3 -2 7 9 7 25 1
15 2 27 1 27 0 0 -8 -5 -17 -11z"/>
<path d="M9035 9920 c-4 -6 -11 -7 -17 -4 -7 4 -8 2 -4 -4 4 -7 18 -11 31 -10
18 2 21 5 13 15 -13 16 -15 16 -23 3z"/>
<path d="M9885 9956 c-3 -9 -7 -22 -9 -30 -3 -8 2 -17 10 -20 8 -3 14 -2 15 2
0 4 2 17 5 29 4 26 -14 42 -21 19z"/>
<path d="M9775 9942 c-7 -23 4 -54 16 -46 5 3 9 0 9 -7 0 -8 4 -8 15 1 8 7 15
16 15 21 0 5 -7 9 -15 9 -8 0 -15 6 -15 14 0 23 -18 28 -25 8z"/>
<path d="M3741 9074 c0 -11 3 -14 6 -6 3 7 2 16 -1 19 -3 4 -6 -2 -5 -13z"/>
<path d="M5960 5777 c-20 -10 -26 -21 -28 -54 -3 -34 1 -44 23 -61 16 -13 34
-18 48 -15 69 17 79 96 16 128 -33 18 -28 18 -59 2z m76 -58 c2 -30 -5 -49
-18 -49 -5 0 -6 6 -3 13 4 6 0 4 -8 -5 -15 -19 -32 -25 -22 -8 3 6 -1 7 -9 4
-9 -3 -16 -2 -17 2 -6 46 -5 75 2 79 4 3 8 -3 8 -12 2 -48 4 -52 33 -50 15 1
28 3 28 4 0 17 -23 53 -35 53 -9 0 -13 5 -10 11 11 17 50 -15 51 -42z"/>
<path d="M4491 5714 c-33 -42 -27 -80 16 -103 49 -26 96 3 96 59 0 66 -73 94
-112 44z m44 5 c-4 -6 -1 -10 6 -8 40 5 56 -25 37 -67 -11 -24 -28 -33 -28
-13 0 5 -6 7 -12 3 -7 -4 -5 2 6 14 10 12 24 19 30 15 7 -5 7 -2 -1 8 -6 8
-11 18 -10 23 1 5 -8 10 -20 11 -22 2 -40 -25 -29 -43 2 -4 0 -14 -5 -22 -9
-13 -10 -13 -6 0 2 8 0 23 -5 33 -5 11 -5 17 2 17 5 0 10 6 10 14 0 12 10 20
28 25 2 1 0 -4 -3 -10z"/>
<path d="M3265 10099 c-4 -6 -4 -13 -1 -16 8 -8 36 5 36 17 0 13 -27 13 -35
-1z"/>
<path d="M3368 10003 c7 -3 16 -2 19 1 4 3 -2 6 -13 5 -11 0 -14 -3 -6 -6z"/>
<path d="M3308 9988 c9 -9 15 -9 24 0 9 9 7 12 -12 12 -19 0 -21 -3 -12 -12z"/>
<path d="M3618 9783 c12 -2 32 -2 45 0 12 2 2 4 -23 4 -25 0 -35 -2 -22 -4z"/>
<path d="M3710 9770 c0 -5 5 -10 10 -10 6 0 10 5 10 10 0 6 -4 10 -10 10 -5 0
-10 -4 -10 -10z"/>
<path d="M3550 9720 c0 -22 5 -40 10 -40 6 0 10 18 10 40 0 22 -4 40 -10 40
-5 0 -10 -18 -10 -40z"/>
<path d="M3363 9732 c-65 -2 -83 -6 -83 -17 0 -12 17 -15 80 -15 l80 0 1 -52
2 -53 6 50 c4 28 10 55 14 61 13 21 -17 29 -100 26z"/>
<path d="M3501 9727 c-6 -8 -8 -17 -4 -21 4 -4 10 -31 14 -59 6 -51 6 -50 8
21 0 39 -1 72 -3 72 -2 0 -9 -6 -15 -13z"/>
<path d="M3637 9734 c-11 -11 49 -34 89 -34 24 0 34 5 34 15 0 10 -10 15 -29
15 -16 0 -41 3 -57 6 -16 3 -33 2 -37 -2z"/>
<path d="M3310 9640 c0 -33 4 -42 25 -52 18 -8 25 -19 25 -40 0 -15 5 -28 10
-28 6 0 10 18 10 40 0 36 -2 40 -25 40 -22 0 -25 4 -25 40 0 22 -4 40 -10 40
-5 0 -10 -18 -10 -40z"/>
<path d="M2658 9623 c12 -2 32 -2 45 0 12 2 2 4 -23 4 -25 0 -35 -2 -22 -4z"/>
<path d="M3166 9615 c-3 -8 -2 -15 3 -15 4 0 14 -19 20 -42 l13 -42 24 39 24
40 -25 3 c-14 2 -25 10 -25 18 0 19 -26 18 -34 -1z"/>
<path d="M3584 9578 c4 -13 9 -35 12 -50 8 -33 30 -37 39 -8 4 13 -2 30 -17
50 -28 35 -43 38 -34 8z"/>
<path d="M3683 9480 c0 -25 2 -35 4 -22 2 12 2 32 0 45 -2 12 -4 2 -4 -23z"/>
<path d="M3751 9483 c-1 -32 3 -43 14 -43 8 0 15 9 15 20 0 11 -4 20 -9 20 -5
0 -12 10 -14 23 -2 12 -5 3 -6 -20z"/>
<path d="M3466 9395 c-3 -9 -5 -29 -5 -43 1 -20 3 -17 9 13 8 43 7 57 -4 30z"/>
<path d="M3280 9381 c0 -12 6 -21 16 -21 9 0 14 7 12 17 -5 25 -28 28 -28 4z"/>
<path d="M1970 9380 c0 -5 7 -10 15 -10 8 0 15 5 15 10 0 6 -7 10 -15 10 -8 0
-15 -4 -15 -10z"/>
<path d="M3492 9370 c0 -14 2 -19 5 -12 2 6 2 18 0 25 -3 6 -5 1 -5 -13z"/>
<path d="M3446 9317 c3 -10 9 -15 12 -12 3 3 0 11 -7 18 -10 9 -11 8 -5 -6z"/>
<path d="M3671 9294 c0 -11 3 -14 6 -6 3 7 2 16 -1 19 -3 4 -6 -2 -5 -13z"/>
<path d="M3442 9250 c0 -19 2 -27 5 -17 2 9 2 25 0 35 -3 9 -5 1 -5 -18z"/>
<path d="M3360 9160 c0 -22 5 -40 10 -40 6 0 10 18 10 40 0 22 -4 40 -10 40
-5 0 -10 -18 -10 -40z"/>
<path d="M3441 9164 c0 -11 3 -14 6 -6 3 7 2 16 -1 19 -3 4 -6 -2 -5 -13z"/>
<path d="M3442 9035 c0 -16 2 -22 5 -12 2 9 2 23 0 30 -3 6 -5 -1 -5 -18z"/>
<path d="M3360 8961 c0 -45 4 -81 9 -81 4 0 11 29 15 65 5 52 3 69 -9 81 -13
14 -15 7 -15 -65z"/>
<path d="M3462 8990 c0 -19 2 -27 5 -17 2 9 2 25 0 35 -3 9 -5 1 -5 -18z"/>
<path d="M147 8645 c-4 -8 -2 -17 3 -20 6 -4 10 3 10 14 0 25 -6 27 -13 6z"/>
<path d="M3451 8544 c0 -11 3 -14 6 -6 3 7 2 16 -1 19 -3 4 -6 -2 -5 -13z"/>
<path d="M3322 7728 c-7 -7 -12 -16 -12 -21 0 -5 7 -1 16 8 9 9 14 18 12 20
-2 3 -10 -1 -16 -7z"/>
<path d="M3251 7654 c-7 -8 -11 -17 -9 -20 3 -2 13 5 23 16 10 11 14 20 9 20
-5 -1 -15 -8 -23 -16z"/>
<path d="M2830 6540 c-9 -6 -10 -10 -3 -10 6 0 15 5 18 10 8 12 4 12 -15 0z"/>
<path d="M3148 6438 c-19 -19 -13 -24 11 -9 7 5 12 13 10 18 -2 5 -12 1 -21
-9z"/>
<path d="M3135 6379 c-4 -6 -5 -12 -2 -15 2 -3 7 2 10 11 7 17 1 20 -8 4z"/>
<path d="M2085 6159 c-4 -6 -5 -12 -2 -15 2 -3 7 2 10 11 7 17 1 20 -8 4z"/>
<path d="M2845 5809 c-4 -6 -5 -12 -2 -15 2 -3 7 2 10 11 7 17 1 20 -8 4z"/>
<path d="M1870 5729 c0 -5 5 -7 10 -4 6 3 10 8 10 11 0 2 -4 4 -10 4 -5 0 -10
-5 -10 -11z"/>
<path d="M1819 5666 c6 -7 9 -21 5 -30 -3 -9 -1 -16 5 -16 6 0 11 6 11 14 0
23 -11 46 -22 46 -7 0 -6 -5 1 -14z"/>
<path d="M2140 5670 c0 -5 5 -10 10 -10 6 0 10 5 10 10 0 6 -4 10 -10 10 -5 0
-10 -4 -10 -10z"/>
<path d="M1790 5650 c0 -5 5 -10 10 -10 6 0 10 5 10 10 0 6 -4 10 -10 10 -5 0
-10 -4 -10 -10z"/>
<path d="M1720 5630 c0 -5 5 -10 10 -10 6 0 10 5 10 10 0 6 -4 10 -10 10 -5 0
-10 -4 -10 -10z"/>
<path d="M1770 5631 c0 -9 30 -24 36 -18 2 1 -6 8 -16 15 -11 7 -20 8 -20 3z"/>
<path d="M1690 5614 c0 -8 5 -12 10 -9 6 4 8 11 5 16 -9 14 -15 11 -15 -7z"/>
<path d="M1750 5610 c0 -6 7 -10 15 -10 8 0 15 2 15 4 0 2 -7 6 -15 10 -8 3
-15 1 -15 -4z"/>
<path d="M1572 5548 c5 -32 28 -35 28 -4 0 17 -5 26 -16 26 -10 0 -14 -7 -12
-22z"/>
<path d="M1618 5483 c6 -2 18 -2 25 0 6 3 1 5 -13 5 -14 0 -19 -2 -12 -5z"/>
<path d="M1378 5433 c12 -2 32 -2 45 0 12 2 2 4 -23 4 -25 0 -35 -2 -22 -4z"/>
<path d="M1200 5000 c0 -6 7 -10 15 -10 8 0 15 2 15 4 0 2 -7 6 -15 10 -8 3
-15 1 -15 -4z"/>
<path d="M1600 4859 c0 -5 5 -7 10 -4 6 3 10 8 10 11 0 2 -4 4 -10 4 -5 0 -10
-5 -10 -11z"/>
<path d="M1280 4830 c0 -20 5 -30 15 -30 9 0 12 6 9 15 -4 8 -1 22 6 30 10 12
9 15 -9 15 -17 0 -21 -6 -21 -30z"/>
<path d="M1528 4813 c7 -3 16 -2 19 1 4 3 -2 6 -13 5 -11 0 -14 -3 -6 -6z"/>
<path d="M1950 4799 c0 -5 5 -7 10 -4 6 3 10 8 10 11 0 2 -4 4 -10 4 -5 0 -10
-5 -10 -11z"/>
<path d="M2100 4770 c-18 -12 -2 -12 25 0 13 6 15 9 5 9 -8 0 -22 -4 -30 -9z"/>
<path d="M2118 4743 c7 -3 16 -2 19 1 4 3 -2 6 -13 5 -11 0 -14 -3 -6 -6z"/>
<path d="M2850 4730 c0 -5 5 -10 11 -10 5 0 7 5 4 10 -3 6 -8 10 -11 10 -2 0
-4 -4 -4 -10z"/>
<path d="M2765 4700 c-3 -5 3 -10 14 -10 12 0 21 5 21 10 0 6 -6 10 -14 10 -8
0 -18 -4 -21 -10z"/>
</g>
</svg>
